<?xml version="1.0" encoding="UTF-8" standalone="no"?>
<!DOCTYPE svg PUBLIC "-//W3C//DTD SVG 1.1//EN" "http://www.w3.org/Graphics/SVG/1.1/DTD/svg11.dtd">
<!-- Generated by graphviz version 2.40.1 (20161225.0304)
 -->
<!-- Title: G Pages: 1 -->
<svg width="242pt" height="188pt" viewBox="0.00 0.00 242.00 188.00" xmlns="http://www.w3.org/2000/svg" xmlns:xlink="http://www.w3.org/1999/xlink">
<g id="graph0" class="graph" transform="scale(1 1) rotate(0) translate(4 184)">
<title>G</title>
<polygon fill="#ffffff" stroke="transparent" points="-4,4 -4,-184 238,-184 238,4 -4,4"/>
<!-- 0 -->
<g id="node1" class="node">
<title>0</title>
<ellipse fill="none" stroke="#000000" cx="27" cy="-162" rx="27" ry="18"/>
<text text-anchor="middle" x="27" y="-157.8" font-family="Times,serif" font-size="14.00" fill="#000000">0</text>
</g>
<!-- 2 -->
<g id="node2" class="node">
<title>2</title>
<ellipse fill="none" stroke="#000000" cx="27" cy="-90" rx="27" ry="18"/>
<text text-anchor="middle" x="27" y="-85.8" font-family="Times,serif" font-size="14.00" fill="#000000">2</text>
</g>
<!-- 0&#45;&gt;2 -->
<g id="edge1" class="edge">
<title>0-&gt;2</title>
<path fill="none" stroke="#000000" d="M21.0843,-144.2022C20.2798,-136.1807 20.0571,-126.5231 20.4162,-117.5957"/>
<polygon fill="#000000" stroke="#000000" points="23.9097,-117.8099 21.105,-107.593 16.9262,-117.3289 23.9097,-117.8099"/>
</g>
<!-- 2&#45;&gt;0 -->
<g id="edge3" class="edge">
<title>2-&gt;0</title>
<path fill="none" stroke="#000000" d="M32.895,-107.593C33.7094,-115.5865 33.942,-125.2363 33.5928,-134.1759"/>
<polygon fill="#000000" stroke="#000000" points="30.0976,-133.9891 32.9157,-144.2022 37.0817,-134.4608 30.0976,-133.9891"/>
</g>
<!-- 1 -->
<g id="node3" class="node">
<title>1</title>
<ellipse fill="none" stroke="#000000" cx="99" cy="-162" rx="27" ry="18"/>
<text text-anchor="middle" x="99" y="-157.8" font-family="Times,serif" font-size="14.00" fill="#000000">1</text>
</g>
<!-- 1&#45;&gt;1 -->
<g id="edge2" class="edge">
<title>1-&gt;1</title>
<path fill="none" stroke="#000000" d="M118.895,-174.4321C131.688,-177.6753 144,-173.5313 144,-162 144,-153.6218 137.5006,-149.1433 129.0395,-148.5644"/>
<polygon fill="#000000" stroke="#000000" points="128.5019,-145.1004 118.895,-149.5679 129.191,-152.0665 128.5019,-145.1004"/>
</g>
<!-- 3 -->
<g id="node4" class="node">
<title>3</title>
<ellipse fill="none" stroke="#000000" cx="189" cy="-90" rx="27" ry="18"/>
<text text-anchor="middle" x="189" y="-85.8" font-family="Times,serif" font-size="14.00" fill="#000000">3</text>
</g>
<!-- 5 -->
<g id="node5" class="node">
<title>5</title>
<ellipse fill="none" stroke="#000000" cx="189" cy="-18" rx="27" ry="18"/>
<text text-anchor="middle" x="189" y="-13.8" font-family="Times,serif" font-size="14.00" fill="#000000">5</text>
</g>
<!-- 3&#45;&gt;5 -->
<g id="edge4" class="edge">
<title>3-&gt;5</title>
<path fill="none" stroke="#000000" d="M189,-71.8314C189,-64.131 189,-54.9743 189,-46.4166"/>
<polygon fill="#000000" stroke="#000000" points="192.5001,-46.4132 189,-36.4133 185.5001,-46.4133 192.5001,-46.4132"/>
</g>
<!-- 4 -->
<g id="node6" class="node">
<title>4</title>
<ellipse fill="none" stroke="#000000" cx="189" cy="-162" rx="27" ry="18"/>
<text text-anchor="middle" x="189" y="-157.8" font-family="Times,serif" font-size="14.00" fill="#000000">4</text>
</g>
<!-- 4&#45;&gt;3 -->
<g id="edge5" class="edge">
<title>4-&gt;3</title>
<path fill="none" stroke="#000000" d="M189,-143.8314C189,-136.131 189,-126.9743 189,-118.4166"/>
<polygon fill="#000000" stroke="#000000" points="192.5001,-118.4132 189,-108.4133 185.5001,-118.4133 192.5001,-118.4132"/>
</g>
<!-- 4&#45;&gt;4 -->
<g id="edge6" class="edge">
<title>4-&gt;4</title>
<path fill="none" stroke="#000000" d="M208.895,-174.4321C221.688,-177.6753 234,-173.5313 234,-162 234,-153.6218 227.5006,-149.1433 219.0395,-148.5644"/>
<polygon fill="#000000" stroke="#000000" points="218.5019,-145.1004 208.895,-149.5679 219.191,-152.0665 218.5019,-145.1004"/>
</g>
</g>
</svg>