<?xml version="1.0" encoding="UTF-8" standalone="no"?>
<!DOCTYPE svg PUBLIC "-//W3C//DTD SVG 1.1//EN" "http://www.w3.org/Graphics/SVG/1.1/DTD/svg11.dtd">
<!-- Generated by graphviz version 2.40.1 (20161225.0304)
 -->
<!-- Title: %0 Pages: 1 -->
<svg width="254pt" height="176pt" viewBox="0.00 0.00 254.21 175.64" xmlns="http://www.w3.org/2000/svg" xmlns:xlink="http://www.w3.org/1999/xlink">
<g id="graph0" class="graph" transform="scale(1 1) rotate(0) translate(4 171.6391)">
<title>%0</title>
<polygon fill="#ffffff" stroke="transparent" points="-4,4 -4,-171.6391 250.2096,-171.6391 250.2096,4 -4,4"/>
<!-- 6 -->
<g id="node1" class="node">
<title>6</title>
<ellipse fill="none" stroke="#000000" cx="27" cy="-18" rx="27" ry="18"/>
<text text-anchor="middle" x="27" y="-13.8" font-family="Times,serif" font-size="14.00" fill="#000000">6</text>
</g>
<!-- 2 -->
<g id="node2" class="node">
<title>2</title>
<ellipse fill="none" stroke="#000000" cx="148" cy="-149.6391" rx="27" ry="18"/>
<text text-anchor="middle" x="148" y="-145.4391" font-family="Times,serif" font-size="14.00" fill="#000000">2</text>
</g>
<!-- 0 -->
<g id="node3" class="node">
<title>0</title>
<ellipse fill="none" stroke="#000000" cx="219.2096" cy="-139" rx="27" ry="18"/>
<text text-anchor="middle" x="219.2096" y="-134.8" font-family="Times,serif" font-size="14.00" fill="#000000">0</text>
</g>
<!-- 2&#45;&gt;0 -->
<g id="edge1" class="edge">
<title>2-&gt;0</title>
<path fill="none" stroke="#000000" d="M175.0767,-152.1983C178.8138,-151.816 182.6839,-151.3084 186.5091,-150.7018"/>
<polygon fill="#000000" stroke="#000000" points="187.2042,-154.1328 196.4073,-148.8836 185.9395,-147.248 187.2042,-154.1328"/>
</g>
<!-- 0&#45;&gt;2 -->
<g id="edge3" class="edge">
<title>0-&gt;2</title>
<path fill="none" stroke="#000000" d="M192.1329,-136.4408C188.3958,-136.8231 184.5257,-137.3307 180.7005,-137.9373"/>
<polygon fill="#000000" stroke="#000000" points="180.0054,-134.5063 170.8023,-139.7555 181.2701,-141.3911 180.0054,-134.5063"/>
</g>
<!-- 1 -->
<g id="node4" class="node">
<title>1</title>
<ellipse fill="none" stroke="#000000" cx="192" cy="-29" rx="27" ry="18"/>
<text text-anchor="middle" x="192" y="-24.8" font-family="Times,serif" font-size="14.00" fill="#000000">1</text>
</g>
<!-- 1&#45;&gt;1 -->
<g id="edge2" class="edge">
<title>1-&gt;1</title>
<path fill="none" stroke="#000000" d="M217.4435,-35.6907C228.0278,-36.1521 237,-33.9219 237,-29 237,-25.77 233.136,-23.6992 227.4881,-22.7876"/>
<polygon fill="#000000" stroke="#000000" points="227.5987,-19.289 217.4435,-22.3093 227.2656,-26.2811 227.5987,-19.289"/>
</g>
<!-- 4 -->
<g id="node5" class="node">
<title>4</title>
<ellipse fill="none" stroke="#000000" cx="49" cy="-143.4776" rx="27" ry="18"/>
<text text-anchor="middle" x="49" y="-139.2776" font-family="Times,serif" font-size="14.00" fill="#000000">4</text>
</g>
<!-- 4&#45;&gt;4 -->
<g id="edge5" class="edge">
<title>4-&gt;4</title>
<path fill="none" stroke="#000000" d="M74.4435,-150.1682C85.0278,-150.6297 94,-148.3994 94,-143.4776 94,-140.2476 90.136,-138.1768 84.4881,-137.2652"/>
<polygon fill="#000000" stroke="#000000" points="84.5987,-133.7666 74.4435,-136.7869 84.2656,-140.7587 84.5987,-133.7666"/>
</g>
<!-- 3 -->
<g id="node6" class="node">
<title>3</title>
<ellipse fill="none" stroke="#000000" cx="93.0205" cy="-86.1545" rx="27" ry="18"/>
<text text-anchor="middle" x="93.0205" y="-81.9545" font-family="Times,serif" font-size="14.00" fill="#000000">3</text>
</g>
<!-- 4&#45;&gt;3 -->
<g id="edge4" class="edge">
<title>4-&gt;3</title>
<path fill="none" stroke="#000000" d="M61.4968,-127.2044C65.5272,-121.956 70.0847,-116.0213 74.4562,-110.3288"/>
<polygon fill="#000000" stroke="#000000" points="77.3301,-112.3329 80.6449,-102.27 71.7782,-108.0694 77.3301,-112.3329"/>
</g>
<!-- 5 -->
<g id="node7" class="node">
<title>5</title>
<ellipse fill="none" stroke="#000000" cx="117.125" cy="-18" rx="27" ry="18"/>
<text text-anchor="middle" x="117.125" y="-13.8" font-family="Times,serif" font-size="14.00" fill="#000000">5</text>
</g>
<!-- 3&#45;&gt;5 -->
<g id="edge6" class="edge">
<title>3-&gt;5</title>
<path fill="none" stroke="#000000" d="M99.228,-68.603C101.7389,-61.5037 104.6963,-53.1417 107.4759,-45.2824"/>
<polygon fill="#000000" stroke="#000000" points="110.8201,-46.3237 110.8548,-35.7289 104.2206,-43.9896 110.8201,-46.3237"/>
</g>
</g>
</svg>